<?xml version="1.0" encoding="UTF-8"?><svg id="b" xmlns="http://www.w3.org/2000/svg" viewBox="0 0 2745.49 1304.11"><g id="c"><g id="d"><g id="e"><path d="M1955.75,916.36c-6.88-3.6-16.76-5.43-29.38-5.43h-56.74v7.76l2.23.61c1.75.48,2.21.97,2.25,1.01.14.16.29.63.29,1.44v86.47c0,1.05-.24,1.37-.29,1.44-.04.05-.5.53-2.25,1.01l-2.23.61v7.76h56.74c11.79,0,21.47-1.74,28.78-5.19,7.45-3.5,13.68-9.32,18.51-17.3,5.29-8.86,7.96-19.49,7.96-31.6,0-10.23-1.98-19.53-5.9-27.64-4.55-9.37-11.26-16.42-19.97-20.95ZM1963.32,964.96c0,6.16-.9,11.88-2.66,17-2.64,7.53-6.8,13.17-12.34,16.76-4.71,3.01-12.24,4.53-22.39,4.53h-33.74v-76.51h33.74c7.65,0,13.77.84,18.18,2.5,4.22,1.58,7.86,4.32,10.82,8.14,5.57,7.19,8.39,16.48,8.39,27.59Z" fill="#707071"/><path d="M1993.15,936.66l2.27.59c1.72.45,2.15.91,2.15.91,0,.02.35.6.35,2.57v66.82c0,2-.37,2.55-.37,2.55,0,0-.39.48-2.14.94l-2.26.6v7.4h26.29v-7.4l-2.26-.6c-1.74-.46-2.14-.92-2.14-.93s-.37-.56-.37-2.56v-66.82c0-1.98.34-2.55.34-2.55,0-.01.43-.47,2.16-.93l2.27-.59v-7.41h-26.29v7.41Z" fill="#707071"/><path d="M2107.18,971.19c-3.02-1.7-6.67-2.95-10.83-3.7-4.02-.73-9.74-1.21-17.47-1.47-8.91-.34-14.78-.64-17.45-.88-2.48-.23-4.8-.7-6.9-1.42-1.74-.59-3.08-1.56-4.11-2.98-1.02-1.4-1.51-2.93-1.51-4.67,0-4.22,2.13-7.34,6.67-9.79,5.05-2.69,11.35-4.06,18.72-4.06,9.29,0,17.24,1.74,23.65,5.18,2.04,1.07,2.88,1.77,3.2,2.09-.05.48-.15,1.15-.3,2.03l-.38,2.23,6.51,3.27,10.96-21.77-7.16-3.45-1.42,2.4c-.27.45-.48.77-.65,1-.31-.12-.68-.27-1.1-.44-10.88-4.84-21.88-7.28-32.71-7.28-11.97,0-22.03,2.52-29.88,7.49-8.17,5.16-12.31,12.39-12.31,21.48,0,5.17,1.43,9.75,4.27,13.64,2.78,3.7,6.48,6.41,11,8.05,3.32,1.21,6.89,2.08,10.64,2.59,3.63.48,9.65.91,17.89,1.26,6.88.25,11.58.52,13.96.8,2.28.27,4.37.72,6.14,1.33,1.61.59,2.87,1.55,3.86,2.95.98,1.38,1.46,2.91,1.46,4.66,0,1.99-.61,3.87-1.87,5.74-1.31,1.95-3.04,3.47-5.29,4.64-5.11,2.65-11.69,3.99-19.57,3.99-8.65,0-17.13-2.17-25.21-6.45-4.03-2.13-5.45-3.35-5.92-3.85.04-.19.11-.46.22-.82l.83-3.39-6.35-3.71-12.5,21.02,6.38,4.18,1.74-2.03c.54-.63.94-1.03,1.22-1.28.04.03.09.05.13.08,6.01,3.4,12.6,6.11,19.59,8.06,7.02,1.95,13.83,2.95,20.25,2.95,13.13,0,23.86-2.93,31.92-8.72,7.11-5.17,10.72-12.21,10.72-20.93,0-4.18-.98-8.11-2.9-11.66-1.97-3.61-4.7-6.41-8.12-8.33Z" fill="#707071"/><path d="M2201.14,927.18c-.46,1.74-.91,2.16-.9,2.16-.02,0-.6.36-2.58.36h-65.12c-1.97,0-2.55-.34-2.56-.34,0,0-.47-.42-.92-2.16l-.59-2.28h-7.4v23.8h7.41l.59-2.28c.44-1.72.89-2.15.88-2.15.02,0,.61-.35,2.59-.35h24.19v63.63c0,2-.37,2.55-.37,2.56s-.39.47-2.14.93l-2.26.6v7.4h26.29v-7.42l-2.28-.59c-1.71-.44-2.13-.88-2.13-.88,0,0-.37-.58-.37-2.6v-63.63h24.19c1.99,0,2.56.36,2.56.36,0,0,.47.42.92,2.15l.59,2.27h7.39v-23.8h-7.39l-.6,2.27Z" fill="#707071"/><path d="M2213.27,936.66l2.27.59c1.72.45,2.15.91,2.15.91,0,.02.35.6.35,2.57v66.82c0,2-.37,2.55-.37,2.55,0,0-.39.48-2.14.94l-2.26.6v7.4h26.29v-7.4l-2.26-.6c-1.74-.46-2.14-.92-2.14-.93s-.37-.56-.37-2.56v-66.82c0-1.98.34-2.55.34-2.55,0-.01.43-.47,2.16-.93l2.27-.59v-7.41h-26.29v7.41Z" fill="#707071"/><path d="M2324.44,1002.31c-.45,1.71-.9,2.13-.89,2.13-.02.02-.63.38-2.66.38h-47.91v-64.08c0-1.98.35-2.56.35-2.56,0,0,.42-.47,2.16-.92l2.27-.59v-7.42h-26.29v7.42l2.27.59c1.74.46,2.15.92,2.15.92,0,0,.35.57.35,2.56v66.82c0,1.99-.37,2.54-.37,2.56,0,0-.39.47-2.14.93l-2.26.6v7.4h69.42c2.05,0,2.62.37,2.63.37,0,0,.47.4.93,2.15l.6,2.27h7.39v-23.8h-7.4l-.59,2.28Z" fill="#707071"/><path d="M2409.92,1002.31c-.45,1.71-.9,2.13-.89,2.13-.02.02-.62.38-2.66.38h-47.91v-64.08c0-1.98.34-2.56.34-2.56,0,0,.42-.47,2.16-.92l2.27-.59v-7.42h-26.29v7.41l2.27.59c1.74.46,2.15.92,2.15.92,0,0,.35.57.35,2.56v66.82c0,1.99-.37,2.54-.37,2.56,0,0-.39.47-2.14.93l-2.26.6v7.4h69.42c2.05,0,2.62.37,2.63.37,0,0,.47.4.93,2.15l.6,2.27h7.39v-23.8h-7.4l-.59,2.28Z" fill="#707071"/><path d="M2495.98,1002.37c-.38,1.65-.81,2.06-.8,2.06-.03.02-.63.38-2.66.38h-48.58v-24.93h29.56c1.99,0,2.56.36,2.56.36,0,0,.47.42.92,2.15l.59,2.27h7.39v-23.8h-7.39l-.6,2.27c-.46,1.76-.92,2.16-.92,2.17,0,0-.57.35-2.56.35h-29.56v-22.17h48.13c1.95,0,2.55.33,2.56.33.03.03.47.47.92,2.18l.59,2.28h7.4v-23.8h-7.39l-.6,2.27c-.46,1.73-.91,2.16-.9,2.16-.02,0-.6.36-2.58.36h-69.65v7.42l2.27.59c1.73.45,2.14.91,2.15.91,0,0,.36.58.36,2.57v66.82c0,2.02-.36,2.59-.36,2.59,0,0-.41.45-2.14.89l-2.28.59v7.42h70.17c1.95,0,2.54.34,2.55.34.02.02.45.44.84,2.11l.56,2.33h7.52v-23.8h-7.53l-.55,2.34Z" fill="#707071"/><path d="M2598.69,1010.36s-.44-.27-1.11-1.29l-18.46-29.36c6.18-1.19,11.13-3.47,14.74-6.8,4.66-4.29,7.02-10.16,7.02-17.45,0-8.88-3.34-15.75-9.92-20.41-2.97-2.13-6.46-3.65-10.4-4.53-3.75-.85-8.61-1.27-14.42-1.27h-52.64v7.41l2.27.59c1.73.45,2.15.91,2.15.91,0,.01.35.59.35,2.57v66.82c0,2.02-.36,2.59-.36,2.59,0,0-.41.45-2.14.89l-2.28.59v7.42h26.29v-7.4l-2.26-.6c-1.75-.46-2.14-.92-2.14-.94,0,0-.37-.56-.37-2.55v-26.41h25.67l18.33,29.02c.21.34.39.63.54.88l-2.22.46v7.54h26.75v-7.74l-2.65-.34c-2.14-.28-2.73-.59-2.75-.6ZM2535.01,943.48h29.94c9.23,0,13.5,1.68,15.46,3.1,2.86,2.05,4.25,5.11,4.25,9.33,0,5.7-2.47,7.74-4.33,8.78-1.46.81-3.3,1.38-5.49,1.71-2.39.35-6.12.53-11.08.53h-28.74v-23.44Z" fill="#707071"/><path d="M2662.57,929.25v7.73l2.63.35c.31.04.52.1.64.11-.09.33-.4,1.16-1.44,2.73l-18.02,25.45-19.54-25.62c-.95-1.23-1.25-2.05-1.34-2.52.15-.05.37-.1.68-.16l2.56-.4v-7.66h-29.62v7.35l2.19.64c1.6.47,2.95,1.21,4.11,2.25.93.84,2.81,2.87,6.56,7.81l25.11,32.79v27.48c0,2-.37,2.55-.37,2.55,0,0-.39.48-2.14.94l-2.26.6v7.4h26.29v-7.42l-2.28-.59c-1.71-.44-2.13-.88-2.13-.88,0,0-.37-.58-.37-2.6v-27.54l21.59-30.49c3.15-4.4,5.64-7.48,7.39-9.17,1.56-1.5,3.25-2.56,5.04-3.16l2.08-.69v-7.26h-27.36Z" fill="#707071"/></g><path id="f" d="M1798.49,949.43c4.97,13.55,10.81-1.8,14.91-7.78.93-1.36,2.42-2.22,4.05-2.41,2.68-.3,5.65-.09,4,3.36-10.31,17.43-34.8,63.94,6.78,43.35,3.64,2.69-1.71,6.13-4.1,7.63-7.3,4.56-14.49,4.94-21.19,6.32-1.4.29-2.67,1.08-3.47,2.26-1.67,2.47-2.56,5.78-4.07,7.39-4.14,5.21-11.16,4.97-9.75-4.47.38-2.55,1.57-5.9,2.06-9.03.28-1.79-.39-3.58-1.65-4.87-8.32-8.57-14.97-17.86-17.72-30.31-5.93-30.16,19.86-39.48,30.15-11.44ZM1796.7,969.69c-1.52.09-4.53,4.63-5.23,3.51-2.38-3.82,7.49-9.14,4.79-14.86-3.11-6.58-10.13-23.78-18.4-18.09-12.64,8.69,10.81,62.05,19.51,29.8.1-.35-.22-.43-.65-.36Z" fill="#707071"/><g id="g"><path d="M1293.56,918.88l2.45.48c1.42.28,1.75.66,1.73.68,0,.2-.08,1.46-1.64,6.12l-21.56,63.65-21.8-63.67c-1.66-4.78-1.84-5.89-1.86-5.95,0,0,.34-.46,1.95-.86l2.32-.57v-7.83h-32.09v8l2.52.44c1.13.19,1.61.47,1.72.4-.09.45-.47,1.92-1.98,6.36l-22.31,63.91-22.48-63.91c-1.66-4.73-1.83-5.85-1.82-6.2.07-.09.56-.39,1.77-.53l2.69-.31v-8.15h-29.98v7.96l2.48.47c1.6.3,2.73.83,3.27,1.53.37.48,1.51,2.32,3.91,8.85l27.25,75.12c1.42,3.93,1.46,4.98,1.49,5.08,0,0-.36.4-1.82.68l-2.46.47v7.95h30.82v-7.75l-2.22-.62c-1.49-.42-1.92-.76-2.04-.79.01-.38.17-1.65,1.33-5.07l22.96-66.39,23.77,67.03c1.15,3.18,1.3,4.04,1.31,4.04,0,.19,0,.71-1.89,1.15l-2.36.54v7.86h30.41v-7.82l-2.31-.57c-.46-.11-1.94-.52-1.94-1.08,0-.1.06-1.07,1.33-4.76l26.06-75.14c2-5.93,3.14-7.9,3.65-8.54.66-.84,1.86-1.44,3.56-1.78l2.43-.49v-7.93h-28.61v7.95Z" fill="#707071"/><path d="M1322.29,936.66l2.27.59c1.72.45,2.15.91,2.15.91.01.02.35.59.35,2.57v66.82c0,2-.37,2.55-.37,2.55,0,0-.39.47-2.14.93l-2.26.6v7.4h26.29v-7.4l-2.26-.6c-1.74-.46-2.14-.92-2.14-.93,0,0-.37-.56-.37-2.55v-66.82c0-1.98.34-2.55.34-2.55,0,0,.42-.47,2.16-.93l2.27-.59v-7.41h-26.29v7.41Z" fill="#707071"/><path d="M1431.12,936.66l2.27.59c1.72.45,2.15.91,2.15.91,0,.02.35.6.35,2.57v50.18l-44.01-49.37c-1.99-2.21-2.05-3.23-2.05-3.37.06-.12.51-.55,1.78-.97l2.09-.68v-7.27h-33.22v7.41l2.27.59c1.72.45,2.15.91,2.15.91.01.02.35.59.35,2.57v66.82c0,2.02-.36,2.59-.36,2.59,0,0-.41.45-2.14.89l-2.28.59v7.42h24.5v-7.42l-2.28-.59c-1.72-.44-2.13-.88-2.13-.88,0,0-.36-.57-.36-2.6v-54.26l48.55,54.04c1.52,1.72,2.23,2.76,2.56,3.26-.28.13-.7.29-1.33.44l-2.3.58v7.44h27.93v-7.42l-2.28-.59c-1.71-.44-2.13-.88-2.13-.88,0,0-.37-.58-.37-2.6v-66.82c0-1.98.35-2.56.35-2.56,0,0,.42-.47,2.16-.92l2.27-.59v-7.42h-24.5v7.41Z" fill="#707071"/><path d="M1540.99,1002.38c-.38,1.64-.8,2.05-.8,2.05-.03.02-.63.38-2.66.38h-48.58v-24.93h29.56c2,0,2.56.37,2.57.37,0,0,.46.4.91,2.14l.59,2.27h7.39v-23.8h-7.39l-.6,2.27c-.46,1.74-.91,2.16-.91,2.16-.01,0-.58.35-2.57.35h-29.56v-22.17h48.13c1.96,0,2.56.34,2.56.34.02.02.47.45.92,2.17l.59,2.28h7.4v-23.8h-7.39l-.6,2.27c-.46,1.75-.91,2.16-.91,2.16,0,0-.57.35-2.57.35h-69.65v7.42l2.27.59c1.72.45,2.14.91,2.15.91,0,.01.35.58.35,2.57v66.82c0,2.02-.36,2.59-.36,2.59,0,0-.41.45-2.14.89l-2.28.59v7.42h70.17c1.95,0,2.54.34,2.55.34.02.02.45.44.84,2.1l.56,2.34h7.53v-23.8h-7.54l-.55,2.35Z" fill="#707071"/><path d="M1643.71,1010.36s-.44-.27-1.11-1.29l-18.46-29.36c6.18-1.19,11.13-3.47,14.74-6.8,4.66-4.29,7.02-10.17,7.02-17.45,0-8.88-3.35-15.75-9.92-20.41-2.96-2.13-6.45-3.65-10.39-4.53-3.75-.85-8.61-1.27-14.42-1.27h-52.64v7.41l2.27.59c1.73.45,2.15.91,2.15.91,0,.01.35.59.35,2.57v66.82c0,2.01-.35,2.58-.35,2.58,0,.01-.42.46-2.14.9l-2.28.59v7.42h26.29v-7.4l-2.26-.6c-1.74-.46-2.13-.92-2.14-.94,0,0-.37-.56-.37-2.55v-26.41h25.67l18.33,29.02c.21.34.39.63.55.88l-2.22.46v7.54h26.75v-7.74l-2.65-.34c-2.14-.28-2.73-.59-2.75-.6ZM1625.35,964.69c-1.46.81-3.3,1.38-5.49,1.71-2.39.35-6.12.53-11.08.53h-28.74v-23.44h29.93c9.24,0,13.5,1.68,15.46,3.1,2.86,2.05,4.25,5.11,4.25,9.33,0,5.7-2.47,7.74-4.33,8.78Z" fill="#707071"/><path d="M1707.59,929.25v7.73l2.63.35c.31.04.52.1.64.11-.09.33-.4,1.16-1.44,2.73l-18.02,25.45-19.54-25.62c-.95-1.23-1.25-2.05-1.34-2.52.15-.05.37-.11.68-.16l2.56-.4v-7.66h-29.62v7.35l2.19.64c1.6.47,2.95,1.2,4.11,2.24.93.84,2.82,2.88,6.56,7.81l25.11,32.79v27.48c0,2-.37,2.55-.37,2.56,0,0-.39.47-2.14.93l-2.26.6v7.4h26.29v-7.42l-2.28-.59c-1.71-.44-2.13-.88-2.13-.88,0,0-.37-.58-.37-2.6v-27.54l21.59-30.49c3.15-4.39,5.63-7.48,7.39-9.17,1.56-1.49,3.26-2.56,5.05-3.16l2.08-.69v-7.26h-27.36Z" fill="#707071"/></g></g><g id="h"><path d="M1928.04,518.11c10.13,0,19.54-4.43,27.99-13.18,8.43-8.73,12.7-18.29,12.7-28.4,0-12.96-6.84-19.81-19.77-19.81-9.83,0-19.31,4.42-28.15,13.15-8.86,8.73-13.35,18.03-13.35,27.62,0,13.49,7.12,20.63,20.59,20.63Z" fill="#231f20"/><path d="M2686.17,560.43h53.77l5.56-10.44h-53.52l47.91-80.99-5.06,1.35c-7.97,2.13-15.79,3.22-23.23,3.22s-14.85-1.08-22.82-3.22l-1.55-.42-48.18,80.05h-40.94l-6.95,10.44h42.05l-55.56,93.46c-56.41,81.27-96.59,122.48-119.43,122.48-10.03,0-14.7-4.68-14.7-14.71s12.85-34.69,38.18-72.77c25.62-38.52,38.08-66.46,38.08-85.41,0-14.96-4.3-27.72-12.8-37.94-8.59-10.33-19.35-15.56-31.98-15.56-15.26,0-31.96,8.49-49.65,25.24-13.06,12.37-30.51,32.91-52.03,61.27,7.95-16.37,11.96-30.16,11.96-41.23,0-12.21-3.47-22.88-10.31-31.72-6.97-9-15.55-13.56-25.51-13.56-15.37,0-43.6,27.89-86.31,85.26l-15.67,20.93c-21.25,30.38-44.1,58.37-67.93,83.2-22.23,23.17-41.3,37-51.02,37-5.96,0-13.88-1.78-13.88-17.17,0-12.97,12.59-40.66,37.41-82.3l74.97-124.35-4.56.74c-11.57,1.89-21.11,2.85-28.36,2.85-6.11,0-13.25-.95-21.24-2.82l-1.61-.38-14.59,27.79c.14-1.41.21-2.73.21-3.97,0-17.53-9.53-26.79-27.56-26.79-20.23,0-47.06,9.21-79.74,27.38-48.34,26.45-81.45,55.95-98.26,87.42-53.8,74.04-92.12,111.59-113.91,111.59-11.71,0-17.16-5.19-17.16-16.35s6.66-28.51,19.78-50.25l95.43-157.13-4.48.64c-13.2,1.9-23.59,2.86-30.86,2.86-4.76,0-11.36-.95-19.62-2.82l-1.52-.35-55.57,94.61c-60.31,85.46-102.09,128.79-124.18,128.79-9.19,0-13.46-5.19-13.46-16.35,0-10.54,9.49-32.71,28.22-65.91,18.85-33.42,86.36-147.03,200.68-337.68l3.16-5.26-5.74,2.15c-8.47,3.18-17.87,4.79-27.95,4.79-6.08,0-13.21-1.08-21.18-3.21l-1.6-.43-.81,1.45c-33.72,60.22-75.79,132.36-125.02,214.41-15.27,25.43-28.34,47.38-38.64,64.94-2.27,2.71-5.17,6.6-8.66,11.58-24.72,36.49-49.37,67.62-73.27,92.52-22.56,23.51-41.16,37-51.02,37-5.96,0-13.87-1.78-13.87-17.17,0-12.97,12.59-40.66,37.41-82.3l74.97-124.35-4.56.75c-11.56,1.89-21.1,2.85-28.36,2.85-6.11,0-13.25-.95-21.24-2.82l-1.61-.38-14.59,27.81c.15-1.42.22-2.75.22-3.98,0-17.53-9.53-26.79-27.56-26.79-20.23,0-47.07,9.21-79.75,27.38-74.47,40.76-112.23,88.39-112.23,141.57,0,19.31,5.12,35.58,15.22,48.38,10.22,12.94,23.06,19.5,38.17,19.5,14.15,0,28.85-6.96,43.68-20.7,12.45-11.53,29.82-32.47,51.73-62.35-3.79,10.92-5.7,21.37-5.7,31.2,0,14.7,4.17,27.12,12.4,36.92,8.32,9.91,19.23,14.93,32.43,14.93,19.46,0,44.97-19.37,77.98-59.19,8.04-9.55,15.34-18.33,21.82-26.27-4.56,11.7-6.87,23.8-6.87,36.08,0,14.16,3.97,26.03,11.79,35.28,7.91,9.36,18.2,14.11,30.57,14.11,22.54,0,54.69-27.46,98.04-83.81-5.57,13.59-8.38,24.84-8.38,33.6,0,14.2,4.54,26.24,13.51,35.78,9,9.58,20.37,14.44,33.78,14.44,25.76,0,60.76-29.8,106.85-91.03-1.62,7.59-2.44,15.34-2.44,23.15,0,19.31,5.12,35.58,15.22,48.38,10.22,12.94,23.07,19.5,38.17,19.5,14.14,0,28.84-6.96,43.68-20.7,12.45-11.54,29.82-32.47,51.72-62.35-3.79,10.92-5.7,21.36-5.7,31.19,0,14.7,4.17,27.12,12.4,36.92,8.32,9.91,19.23,14.93,32.43,14.93,19.46,0,44.97-19.37,77.99-59.19,24.05-28.56,41.08-49.85,50.62-63.28,2.12-2.99,7.61-10.79,11.89-16.88l5.42-7.71c46.42-65.56,66.41-79.32,75.01-79.32,3.79,0,8.13,1.16,8.13,10.19,0,14.04-18.24,50.29-54.2,107.74l-66.39,105.33,4.51-.58c8.34-1.08,17.35-1.63,26.79-1.63,2.66,0,10.74.55,24.01,1.64l1.37.11.67-1.2c82.3-147.04,143.75-221.59,182.65-221.59,10.57,0,15.5,4.67,15.5,14.71,0,5.88-5.7,21.36-32.84,61.65-21.28,31.16-34.65,52.34-39.73,62.94-5.17,10.78-7.8,22.64-7.8,35.24,0,14.44,4.39,26.8,13.05,36.75,8.73,10.02,19.7,15.11,32.61,15.11,19.45,0,45.1-19.37,78.4-59.2,6.05-7.23,11.69-14.04,16.86-20.37-3.73,10.56-5.61,20.11-5.61,28.54,0,14.47,4.54,26.71,13.5,36.38,9.01,9.72,20.37,14.65,33.79,14.65,26.98,0,65.54-35.42,117.9-108.28l17.68-24.32c3.4-4.93,4.11-6.37,4.37-7.12l.11-.68c0-2.84-1.76-4.61-4.59-4.61-2.16,0-4.28,1.6-6.69,5.04-58.43,85.94-100.24,129.52-124.28,129.52-11.71,0-17.16-5.19-17.16-16.35s5.55-25.63,16.52-44.11l90.82-155.48ZM2146.49,578.43c0,18.61-19.03,53.85-56.57,104.73-45.83,61.85-78.22,93.22-96.28,93.22-14.56,0-21.64-8.03-21.64-24.56,0-29.75,20.46-69.52,60.81-118.2,40.24-48.56,73.01-73.18,97.38-73.18,11.13,0,16.31,5.72,16.31,17.99ZM1581.89,578.43c0,18.61-19.03,53.84-56.57,104.73-45.83,61.86-78.22,93.22-96.28,93.22-14.56,0-21.65-8.03-21.65-24.56,0-29.75,20.46-69.52,60.81-118.2,40.24-48.56,73-73.18,97.37-73.18,11.13,0,16.32,5.72,16.32,17.99Z" fill="#231f20"/></g><path id="i" d="M2213.63,0c-129.47,0-281.17,49.34-450.9,146.65-104.12,59.5-199.53,126.4-283.57,198.82-84.05,72.45-182.43,172.81-292.43,298.29-186.51,212.49-303.05,344.17-346.38,391.39-48.39,52.83-95.83,98.97-141.03,137.16-69.04,59.51-92.77,74.45-100.14,75.83l-.34-.51c.57-1.02,2.28-3.6,7.46-9.82,139.68-162.71,225.15-309.75,283.74-434.69,52.61-112.19,84.21-253.95,90.45-327.98,10.43-123.63-3.51-211.96-61.01-276.48-57.58-64.58-133.72-97.32-226.29-97.32-155.23,0-311.2,75.27-463.57,223.72C77.26,473.5,0,625.94,0,778.13c0,80.16,23.18,146.45,68.9,197,45.75,50.63,105.63,76.31,177.97,76.31,115.04,0,228.28-66.05,336.57-196.31,106-127.97,159.75-247.3,159.75-354.68,0-44.55-10.29-77.24-32.39-102.88l-.1-.12c-5.91-5.93-12.97-5.68-16.61-2.43-3.18,2.83-4.72,8.87,1.4,16.6,18.98,22.78,28.6,53.96,28.6,92.68,0,86.74-41.26,186.63-122.64,296.91-113.9,154.23-232.57,232.42-352.7,232.42-61.44,0-110.88-19.68-146.93-58.48-36.09-38.83-54.39-92.54-54.39-159.63,0-74.95,20.76-156.63,61.71-242.75,41.01-86.22,96.48-165.53,164.88-235.71,62.99-64.19,133.74-117.14,210.28-157.37,76.47-40.2,144.85-60.58,203.25-60.58,73.9,0,130.05,23.1,166.91,68.66,36.97,45.69,55.71,115.33,55.71,206.99,0,114.27-30.59,254.62-99.36,425.6-68.78,171.06-156.73,325.32-252.98,450.1-18.47,25.18-18.47,25.77-18.47,26.75,0,4.37,2.58,6.87,7.07,6.87,4.13,0,18.07-6.77,89.91-59.58,101.45-73.71,254.3-226.72,454.3-454.78,169.36-192.44,286.42-320.42,347.91-380.35,63.66-61,142.26-122.02,233.63-181.37,190.32-122.46,357.85-184.56,497.94-184.56,18.93,0,43.71,1.65,73.89,4.92h13.95c20.77,0,25.12-12,25.12-22.07,0-17.71-22.72-26.31-69.45-26.31Z" fill="#231f20"/></g></svg>