<svg xmlns="http://www.w3.org/2000/svg" version="1.1" xmlns:xlink="http://www.w3.org/1999/xlink" width="700" height="700"><svg version="1.0" xmlns="http://www.w3.org/2000/svg" xmlns:xlink="http://www.w3.org/1999/xlink" x="0px" y="0px" viewBox="0 0 700 700" style="enable-background:new 0 0 700 700;" xml:space="preserve">
<style type="text/css">
	.st0{fill:#FFFFFF;}
	.st1{fill:#987018;}
</style>
<g id="SvgjsG1003">
	<rect class="st0" width="700" height="700"></rect>
</g>
<g id="SvgjsG1002">
	<g transform="translate(0.000000,700.000000) scale(0.100000,-0.100000)">
		<path class="st1" d="M0,3500V0h3500h3500v2756v2756l-37-28c-21-16-51-40-68-55c-16-14-70-61-120-104c-154-135-347-324-484-474
			c-42-46-83-92-91-100c-8-9-44-52-78-96c-35-44-71-89-81-100c-121-145-553-724-981-1315c-608-841-802-1101-1079-1455
			c-132-167-407-501-486-589c-143-159-208-228-305-326c-99-99-157-153-347-321c-74-66-176-138-209-149c-77-26-162,30-171,113
			c-6,52-7,51,143,298c243,403,462,845,644,1305c39,99,75,188,80,199c18,42,112,308,179,510c159,478,285,978,346,1365
			c3,19,7,46,10,60c2,14,7,50,10,80s8,66,10,80c4,25,11,99,20,215c7,78,7,418,1,470c-2,22-7,72-11,110c-12,135-60,345-99,430
			c-8,17-23,50-35,75c-70,153-206,278-360,330c-87,29-136,35-266,33c-135-1-260-32-414-99c-99-45-313-165-391-222
			c-137-100-193-144-289-227c-65-56-257-250-321-325c-36-41-71-81-78-89c-8-8-32-39-55-70s-44-58-47-61c-5-5-49-67-132-185
			c-38-54-198-322-198-330c0-3-17-36-38-73c-20-37-61-121-91-187c-29-66-59-134-66-150c-8-17-28-69-45-115c-17-47-33-92-37-100
			c-3-8-7-17-8-20c0-3-15-50-33-105c-136-430-180-881-116-1194c67-326,244-541,494-601c31-8,105-13,170-13c138,1,244,28,385,99
			c136,69,236,145,385,294c238,238,454,544,651,925c43,83,92,184,109,225s37,89,45,105c49,111,119,353,144,500c23,135,31,343,17,412
			c-3,15-8,43-11,61c-9,54-35,124-72,189c-19,35-36,77-37,95c-10,124,117,204,224,141c83-49,172-269,187-463c10-135,5-332-11-417
			c-3-11-8-43-11-70c-6-38-29-145-59-268c-1-5-13-44-26-85s-24-77-25-80s-5-14-9-25s-17-45-28-75c-12-30-32-79-45-108
			c-12-29-23-55-23-58s-29-63-64-134c-58-115-82-161-149-279c-83-149-281-438-395-576c-328-397-633-611-977-684
			c-232-50-458-24-655,74c-295,148-541,515-609,912c-6,35-13,75-16,90c-10,56-19,201-19,323c0,190,8,277,50,530c3,19,14,71,25,115
			s22,87,24,96c16,73,94,297,146,419c232,541,671,1136,1155,1566c509,452,1058,665,1575,611c532-55,965-507,1118-1167
			c11-47,22-101,25-120s8-51,11-70c29-180,37-431,21-675c-8-135-9-147-32-300c-49-343-155-727-314-1139c-23-60-44-124-47-143
			c-11-66,35-80,121-37c108,54,88,29,651,814c197,274,156,218,403,550c548,736,951,1186,1427,1594c108,92,123,105,180,151
			c28,22,56,45,63,52c8,7,22,18,33,23c18,10,19,28,19,555v545H3500H0V3500z"></path>
	</g>
</g>
</svg><style>@media (prefers-color-scheme: light) { :root { filter: none; } }
@media (prefers-color-scheme: dark) { :root { filter: none; } }
</style></svg>